<svg xmlns="http://www.w3.org/2000/svg" version="1.1" xmlns:xlink="http://www.w3.org/1999/xlink" xmlns:svgjs="http://svgjs.dev/svgjs" width="32" height="32"><svg width="32" height="32" viewBox="0 0 54 44" xmlns="http://www.w3.org/2000/svg">
  <!-- 半透明棱柱体 -->
  <g fill-opacity="0.3" stroke-opacity="0.8">
    <!-- 主棱柱 -->
    <path d="M16,6 L38,6 L44,12 L44,36 L36,40 L10,40 L6,36 L8,14 Z" fill="#43A1CD" stroke="#FFFFFF" stroke-width="1"></path>
    
    <!-- 切割模块 -->
    <path d="M16,6 L38,6 L30,16 L20,16 Z" fill="#5DB1D7" stroke="#FFFFFF" stroke-width="0.5"></path>
    <path d="M20,16 L30,16 L36,24 L14,24 Z" fill="#3291C0" stroke="#FFFFFF" stroke-width="0.5"></path>
    <path d="M14,24 L36,24 L34,32 L16,32 Z" fill="#2081B0" stroke="#FFFFFF" stroke-width="0.5"></path>
    <path d="M16,32 L34,32 L36,40 L10,40 Z" fill="#1070A0" stroke="#FFFFFF" stroke-width="0.5"></path>
  </g>
  
  <!-- 虚线雨滴轨迹 -->
  <g stroke="#FFFFFF" stroke-width="0.5" stroke-dasharray="2,2" opacity="0.7">
    <line x1="20" y1="8" x2="20" y2="38"></line>
    <line x1="24" y1="8" x2="24" y2="38"></line>
    <line x1="28" y1="8" x2="28" y2="38"></line>
    <line x1="32" y1="8" x2="32" y2="38"></line>
    
    <!-- 变长虚线 -->
    <line x1="18" y1="12" x2="18" y2="36" stroke-dasharray="1,3"></line>
    <line x1="22" y1="12" x2="22" y2="36" stroke-dasharray="3,1"></line>
    <line x1="26" y1="12" x2="26" y2="36" stroke-dasharray="1,3"></line>
    <line x1="30" y1="12" x2="30" y2="36" stroke-dasharray="3,1"></line>
    <line x1="34" y1="12" x2="34" y2="36" stroke-dasharray="1,3"></line>
  </g>
  
  <!-- 棱角高光 -->
  <g fill="#FFFFFF" opacity="0.9">
    <circle cx="16" cy="6" r="0.8"></circle>
    <circle cx="38" cy="6" r="0.8"></circle>
    <circle cx="44" cy="12" r="0.8"></circle>
    <circle cx="44" cy="36" r="0.8"></circle>
    <circle cx="36" cy="40" r="0.8"></circle>
    <circle cx="10" cy="40" r="0.8"></circle>
    <circle cx="6" cy="36" r="0.8"></circle>
    <circle cx="8" cy="14" r="0.8"></circle>
    
    <circle cx="20" cy="16" r="0.6"></circle>
    <circle cx="30" cy="16" r="0.6"></circle>
    <circle cx="14" cy="24" r="0.6"></circle>
    <circle cx="36" cy="24" r="0.6"></circle>
    <circle cx="16" cy="32" r="0.6"></circle>
    <circle cx="34" cy="32" r="0.6"></circle>
  </g>
  
  <!-- 雨滴点缀 -->
  <g fill="#FFFFFF" opacity="0.8">
    <circle cx="20" cy="28" r="0.4"></circle>
    <circle cx="24" cy="22" r="0.4"></circle>
    <circle cx="28" cy="30" r="0.4"></circle>
    <circle cx="32" cy="26" r="0.4"></circle>
  </g>
</svg><style>@media (prefers-color-scheme: light) { :root { filter: none; } }
@media (prefers-color-scheme: dark) { :root { filter: none; } }
</style></svg>