<svg width="143" height="143" viewBox="0 0 143 143" xmlns="http://www.w3.org/2000/svg">
  <!-- 半透明棱柱体 -->
  <g fill="black">
    <!-- 主棱柱 -->
    <path d="M42,20 L101,20 L116,32 L116,95 L95,106 L26,106 L16,95 L21,37 Z"/>
    
    <!-- 切割模块 -->
    <path d="M42,20 L101,20 L79,42 L53,42 Z"/>
    <path d="M53,42 L79,42 L95,63 L37,63 Z"/>
    <path d="M37,63 L95,63 L90,85 L42,85 Z"/>
    <path d="M42,85 L90,85 L95,106 L26,106 Z"/>
  </g>
  
  <!-- 棱角点 -->
  <g fill="black">
    <circle cx="42" cy="20" r="2.5"/>
    <circle cx="101" cy="20" r="2.5"/>
    <circle cx="116" cy="32" r="2.5"/>
    <circle cx="116" cy="95" r="2.5"/>
    <circle cx="95" cy="106" r="2.5"/>
    <circle cx="26" cy="106" r="2.5"/>
    <circle cx="16" cy="95" r="2.5"/>
    <circle cx="21" cy="37" r="2.5"/>
    
    <circle cx="53" cy="42" r="2"/>
    <circle cx="79" cy="42" r="2"/>
    <circle cx="37" cy="63" r="2"/>
    <circle cx="95" cy="63" r="2"/>
    <circle cx="42" cy="85" r="2"/>
    <circle cx="90" cy="85" r="2"/>
  </g>
</svg>
